<?xml version="1.0" encoding="UTF-8"?>
<svg width="218px" height="43px" viewBox="0 0 218 43" version="1.1" xmlns="http://www.w3.org/2000/svg" xmlns:xlink="http://www.w3.org/1999/xlink">
    <!-- Generator: Sketch 40.3 (33839) - http://www.bohemiancoding.com/sketch -->
    <title>logo copy</title>
    <desc>Created with Sketch.</desc>
    <defs></defs>
    <g id="Iteration" stroke="none" stroke-width="1" fill="none" fill-rule="evenodd" opacity="0.5">
        <g id="Home" transform="translate(-728.000000, -3861.000000)" fill="#525151">
            <g id="Group-4" transform="translate(541.000000, 3851.152174)">
                <g id="logo-copy" transform="translate(187.000000, 10.000000)">
                    <path d="M31.9553261,5.80946457 C28.4989728,2.20244493 23.962509,0.263671875 19.0804099,0.263671875 C14.2415152,0.263671875 9.66184705,2.24753268 6.20549371,5.80946457 C-0.880030642,13.2038548 -0.880030642,25.2422829 6.20549371,32.6366731 L14.1983108,40.9779061 L15.5376477,40.6622918 L15.7968742,39.3096595 L7.84726155,30.9684266 C1.62582553,24.4757912 1.62582553,13.9703465 7.84726155,7.47771115 C10.8715707,4.32156897 14.8463771,2.60823464 19.0804099,2.60823464 C23.3144428,2.60823464 27.3324535,4.32156897 30.3135583,7.47771115 C36.5349943,13.9703465 36.5349943,24.4757912 30.3135583,30.9684266 L31.9121217,32.6366731 C39.0840549,25.2873706 39.0840549,13.2038548 31.9553261,5.80946457 Z M10.2667089,10.0026249 C15.148808,4.90770966 23.0552163,4.90770966 27.9373154,10.0026249 C32.8194144,15.0975401 32.8194144,23.3485976 27.9373154,28.4435128 L29.5358788,30.1117594 C35.2820662,24.1150892 35.2820662,14.3310485 29.5358788,8.28929057 C23.7896913,2.29262042 14.4143329,2.29262042 8.62494105,8.28929057 C2.87875362,14.2859607 2.87875362,24.0700015 8.62494105,30.1117594 L16.6177582,38.4529923 L17.9570951,38.1824658 L18.2163216,36.7847457 L10.2667089,28.4886006 C5.38460979,23.3936853 5.38460979,15.0975401 10.2667089,10.0026249 Z M22.2775368,29.3903555 C21.9319014,29.7510574 21.7158793,30.2470226 21.7158793,30.7880756 C21.7158793,31.3291285 21.9319014,31.8250937 22.2775368,32.1857957 L25.9931166,36.0633418 C26.3819563,36.4691315 26.8572049,36.6494825 27.3324535,36.6494825 C27.8077021,36.6494825 28.3261551,36.4691315 28.6717904,36.0633418 L31.2640554,33.3580771 L24.7401885,26.7301785 L22.2775368,29.3903555 Z M27.1596359,27.6319334 C31.6096908,22.9878956 31.6096908,15.5033299 27.1596359,10.8592921 C24.999415,8.60490479 22.1479235,7.38753566 19.1236143,7.38753566 C16.0993052,7.38753566 13.2478136,8.60490479 11.0875928,10.8592921 C6.63753788,15.5033299 6.63753788,22.9878956 11.0875928,27.6319334 L19.0804099,35.9731663 L20.4197468,35.7026398 L20.7221777,34.3049197 L12.7293606,25.9636868 C9.18659847,22.2664917 9.18659847,16.2247338 12.7293606,12.5275386 C14.4575373,10.7240288 16.7473714,9.73209843 19.1668187,9.73209843 C21.5862661,9.73209843 23.8761002,10.7240288 25.6042768,12.5275386 C29.147039,16.2247338 29.147039,22.2664917 25.6042768,25.9636868 L27.1596359,27.6319334 Z M18.3027304,41.879661 L22.3207412,42.7363281 L21.4998573,38.49808 L18.3027304,41.879661 Z" id="Shape"></path>
                    <path d="M52.7469419,26.0172117 L52.7469419,29.9328744 L49,29.9328744 L49,12.2908778 L52.7469419,12.2908778 L52.7469419,20.939759 L60.4561672,12.2908778 L64.9352701,12.2908778 L58.0874108,20.0361446 L65.6674312,29.9328744 L60.9729867,29.9328744 L55.5463812,22.919105 L52.7469419,26.0172117 Z M70.5341488,18.9173838 C71.6539246,17.8846816 73.0751784,17.3253012 74.8840469,17.3253012 L74.8840469,20.767642 C72.9459735,20.8537005 71.567788,21.4130809 70.5341488,22.5748709 L70.5341488,30.0189329 L66.9164118,30.0189329 L66.9164118,17.5834768 L70.5341488,17.5834768 L70.5341488,18.9173838 Z M88.8812436,25.0275387 L79.7938328,25.0275387 C80.1383792,26.2753873 81.1289501,27.222031 82.8947503,27.222031 C83.9283894,27.222031 84.6174822,26.9208262 85.0050968,26.2753873 L88.7520387,26.2753873 C88.062946,28.6419966 85.7372579,30.1910499 82.8086137,30.1910499 C78.803262,30.1910499 76.1330275,27.394148 76.1330275,23.6936317 C76.1330275,19.9500861 78.803262,17.1962134 82.7655454,17.1962134 C86.2540775,17.1962134 88.9243119,19.7349398 88.9243119,23.4354561 C88.9673802,23.9948365 88.9673802,24.5111876 88.8812436,25.0275387 Z M79.7507645,22.4888124 L85.3496432,22.4888124 C85.1343017,21.0258176 84.1867992,20.1652324 82.6794088,20.1652324 C81.0428135,20.2082616 80.0953109,21.1979346 79.7507645,22.4888124 Z M104.170489,29.9328744 L100.552752,29.9328744 L100.552752,29.2013769 C99.6052497,29.8037866 98.4424057,30.1910499 97.0211519,30.1910499 C93.5756881,30.1910499 90.819317,27.3511188 90.819317,23.7366609 C90.819317,20.0791738 93.6187564,17.2392427 97.0211519,17.2392427 C98.4424057,17.2392427 99.6052497,17.5834768 100.552752,18.2289157 L100.552752,17.4974182 L104.170489,17.4974182 L104.170489,29.9328744 Z M100.552752,25.7160069 L100.552752,21.757315 C99.7344546,20.6815835 98.7008155,20.2943201 97.6241081,20.2943201 C95.729103,20.2943201 94.3939857,21.8864028 94.3939857,23.7366609 C94.3939857,25.5438898 95.729103,27.1359725 97.6241081,27.1359725 C98.7008155,27.1359725 99.7344546,26.7487091 100.552752,25.7160069 Z M116.875637,29.7607573 C115.368247,30.2340792 114.679154,30.3201377 113.51631,30.3201377 C110.501529,30.3201377 108.520387,28.211704 108.520387,24.9845095 L108.520387,20.5524957 L105.893221,20.5524957 L105.893221,17.4974182 L108.520387,17.4974182 L108.520387,13.0654045 L112.095056,13.0654045 L112.095056,17.4974182 L116.574159,17.4974182 L116.574159,20.5524957 L112.095056,20.5524957 L112.095056,24.9845095 C112.095056,26.404475 112.956422,27.0499139 114.291539,27.0499139 C114.980632,27.0499139 115.712793,26.8777969 116.401886,26.7056799 L116.875637,29.7607573 Z M118.942915,13.1084337 C118.942915,11.9036145 119.890418,11 121.139399,11 C122.345311,11 123.292813,11.9036145 123.292813,13.1084337 C123.292813,14.313253 122.345311,15.1738382 121.139399,15.1738382 C119.933486,15.1738382 118.942915,14.313253 118.942915,13.1084337 Z M122.948267,29.9328744 L119.33053,29.9328744 L119.33053,17.4974182 L122.948267,17.4974182 L122.948267,29.9328744 Z M133.543068,29.9328744 L130.312946,29.9328744 L124.714067,17.4974182 L128.547146,17.4974182 L131.949541,25.3717728 L135.351937,17.4974182 L139.185015,17.4974182 L133.543068,29.9328744 Z M153.397554,29.7607573 C153.397554,33.6333907 150.727319,36 146.937309,36 C143.319572,36 140.649337,33.8055077 140.390928,30.6213425 L144.008665,30.6213425 C144.180938,31.9122203 145.214577,32.7728055 146.937309,32.7728055 C148.530836,32.7728055 149.779817,31.7401033 149.779817,29.8037866 L149.779817,28.4698795 C148.832314,29.0722892 147.66947,29.4595525 146.248216,29.4595525 C142.802752,29.4595525 140.046381,26.6196213 140.046381,23.3924269 C140.046381,19.6488812 142.845821,17.0240964 146.248216,17.0240964 C147.66947,17.0240964 148.832314,17.3683305 149.779817,18.0137694 L149.779817,17.5404475 L153.354485,17.5404475 L153.354485,29.7607573 L153.397554,29.7607573 Z M149.822885,24.8984509 L149.822885,21.5421687 C149.004587,20.4234079 147.970948,20.0791738 146.894241,20.0791738 C144.999235,20.0791738 143.664118,21.4130809 143.664118,23.3924269 C143.664118,24.8123924 144.999235,26.4475043 146.894241,26.4475043 C147.970948,26.404475 149.004587,26.0172117 149.822885,24.8984509 Z M168.557594,25.0275387 L159.470183,25.0275387 C159.81473,26.2753873 160.805301,27.222031 162.571101,27.222031 C163.60474,27.222031 164.293833,26.9208262 164.681448,26.2753873 L168.428389,26.2753873 C167.739297,28.6419966 165.413609,30.1910499 162.484964,30.1910499 C158.479613,30.1910499 155.809378,27.394148 155.809378,23.6936317 C155.809378,19.9500861 158.479613,17.1962134 162.441896,17.1962134 C165.930428,17.1962134 168.600663,19.7349398 168.600663,23.4354561 C168.643731,23.9948365 168.643731,24.5111876 168.557594,25.0275387 Z M159.427115,22.4888124 L165.025994,22.4888124 C164.810652,21.0258176 163.86315,20.1652324 162.355759,20.1652324 C160.719164,20.2082616 159.771662,21.1979346 159.427115,22.4888124 Z M184.406728,23.6936317 C184.406728,27.3511188 181.650357,30.1910499 178.204893,30.1910499 C176.783639,30.1910499 175.620795,29.8468158 174.673293,29.2013769 L174.673293,29.9328744 L171.055556,29.9328744 L171.055556,11.5163511 L174.673293,11.5163511 L174.673293,18.2289157 C175.620795,17.626506 176.783639,17.2392427 178.204893,17.2392427 C181.650357,17.2392427 184.406728,20.0791738 184.406728,23.6936317 Z M180.832059,23.6936317 C180.832059,21.8864028 179.496942,20.2943201 177.601937,20.2943201 C176.525229,20.2943201 175.49159,20.6385542 174.673293,21.7142857 L174.673293,25.6729776 C175.49159,26.7487091 176.525229,27.1359725 177.601937,27.1359725 C179.496942,27.1359725 180.832059,25.5438898 180.832059,23.6936317 Z M186.603211,13.1084337 C186.603211,11.9036145 187.550714,11 188.799694,11 C190.005607,11 190.953109,11.9036145 190.953109,13.1084337 C190.953109,14.313253 190.005607,15.1738382 188.799694,15.1738382 C187.550714,15.1738382 186.603211,14.313253 186.603211,13.1084337 Z M190.608563,29.9328744 L186.990826,29.9328744 L186.990826,17.4974182 L190.608563,17.4974182 L190.608563,29.9328744 Z M205.811672,25.0275387 L196.724261,25.0275387 C197.068807,26.2753873 198.059378,27.222031 199.825178,27.222031 C200.858818,27.222031 201.54791,26.9208262 201.935525,26.2753873 L205.682467,26.2753873 C204.993374,28.6419966 202.667686,30.1910499 199.739042,30.1910499 C195.73369,30.1910499 193.063456,27.394148 193.063456,23.6936317 C193.063456,19.9500861 195.73369,17.1962134 199.695973,17.1962134 C203.184506,17.1962134 205.85474,19.7349398 205.85474,23.4354561 C205.897808,23.9948365 205.897808,24.5111876 205.811672,25.0275387 Z M196.724261,22.4888124 L202.32314,22.4888124 C202.107798,21.0258176 201.160296,20.1652324 199.652905,20.1652324 C197.973242,20.2082616 197.068807,21.1979346 196.724261,22.4888124 Z M218,29.7607573 C216.49261,30.2340792 215.803517,30.3201377 214.640673,30.3201377 C211.625892,30.3201377 209.64475,28.211704 209.64475,24.9845095 L209.64475,20.5524957 L207.017584,20.5524957 L207.017584,17.4974182 L209.64475,17.4974182 L209.64475,13.0654045 L213.219419,13.0654045 L213.219419,17.4974182 L217.698522,17.4974182 L217.698522,20.5524957 L213.219419,20.5524957 L213.219419,24.9845095 C213.219419,26.404475 214.080785,27.0499139 215.415902,27.0499139 C216.104995,27.0499139 216.837156,26.8777969 217.526249,26.7056799 L218,29.7607573 Z" id="Shape"></path>
                </g>
            </g>
        </g>
    </g>
</svg>