<?xml version="1.0" encoding="UTF-8"?>
<svg width="39px" height="37px" viewBox="0 0 39 37" version="1.1" xmlns="http://www.w3.org/2000/svg" xmlns:xlink="http://www.w3.org/1999/xlink">
    <!-- Generator: Sketch 40.3 (33839) - http://www.bohemiancoding.com/sketch -->
    <title>Page 1</title>
    <desc>Created with Sketch.</desc>
    <defs></defs>
    <g id="Iteration" stroke="none" stroke-width="1" fill="none" fill-rule="evenodd">
        <g id="Projects:hover-Copy" transform="translate(-140.000000, -82.000000)" fill="#FFFFFF">
            <g id="Page-1" transform="translate(140.000000, 82.000000)">
                <path d="M23,0 L38,15 L38,0 L23,0 Z M25.3816335,0.986387848 L37.0136122,0.986387848 L37.0136122,12.6188597 L25.3816335,0.986387848 Z" id="Fill-1"></path>
                <path d="M1,37 L16,37 L1,22 L1,37 Z M1.98635542,24.3811403 L13.6184448,36.0136122 L1.98635542,36.0136122 L1.98635542,24.3811403 Z" id="Fill-2"></path>
                <polygon id="Fill-3" points="0 0 36.5486991 36 28.847076 36 1.22539666 8.793 1.22539666 10.207 28.4267659 37 39 37 2.45130094 1 10.1524164 1 37.7740957 28.207 37.7740957 26.793 10.5727264 0"></polygon>
            </g>
        </g>
    </g>
</svg>